<svg width="30" height="30" viewBox="0 0 30 30" fill="none" xmlns="http://www.w3.org/2000/svg">
<mask id="mask0" mask-type="alpha" maskUnits="userSpaceOnUse" x="0" y="0" width="30" height="30">
<rect width="30" height="30" fill="white"/>
</mask>
<g mask="url(#mask0)">
<path fill-rule="evenodd" clip-rule="evenodd" d="M7.4503 9.83039C6.1828 9.83039 5.1543 8.77293 5.1543 7.49625C5.1543 6.21956 6.1828 5.18359 7.4503 5.18359C8.71779 5.18359 9.7463 6.21956 9.7463 7.49625C9.7463 8.77293 8.71779 9.83039 7.4503 9.83039ZM9.43476 24.4414H5.4701V11.5842H9.43476V24.4414ZM20.3173 24.4414H24.2734H24.2777V17.3788C24.2777 13.9227 23.5394 11.2618 19.5278 11.2618C17.5988 11.2618 16.3057 12.3279 15.7765 13.3381H15.721V11.5842H11.9185V24.4414H15.8789V18.0751C15.8789 16.3987 16.1947 14.7781 18.256 14.7781C20.2874 14.7781 20.3173 16.691 20.3173 18.1826V24.4414Z" fill="#263844"/>
</g>
</svg>
