<svg width="30" height="30" viewBox="0 0 30 30" fill="none" xmlns="http://www.w3.org/2000/svg">
<mask id="mask0" mask-type="alpha" maskUnits="userSpaceOnUse" x="0" y="0" width="30" height="30">
<rect width="30" height="30" fill="white"/>
</mask>
<g mask="url(#mask0)">
<path fill-rule="evenodd" clip-rule="evenodd" d="M24.9208 6.91027C24.0876 7.39781 23.1669 7.75239 22.1829 7.94211C21.399 7.11512 20.2787 6.59839 19.0385 6.59839C16.6611 6.59839 14.7317 8.50533 14.7317 10.8571C14.7317 11.1911 14.7687 11.5149 14.8427 11.8268C11.2621 11.649 8.08794 9.95553 5.96175 7.37565C5.59057 8.00697 5.37862 8.73937 5.37862 9.51933C5.37862 10.996 6.13893 12.2997 7.29566 13.0635C6.5903 13.0429 5.92475 12.8494 5.34274 12.5327V12.5846C5.34274 14.6488 6.82804 16.3709 8.80059 16.7606C8.4395 16.8606 8.05822 16.9109 7.66517 16.9109C7.38762 16.9109 7.1168 16.8849 6.85439 16.8352C7.40276 18.5265 8.99291 19.7583 10.8786 19.7913C9.40447 20.9339 7.54574 21.615 5.52777 21.615C5.18013 21.615 4.83642 21.5955 4.5 21.5566C6.40639 22.763 8.67219 23.4684 11.1045 23.4684C19.0301 23.4684 23.3626 16.9801 23.3626 11.3517C23.3626 11.1663 23.3592 10.9814 23.3519 10.7998C24.1936 10.1993 24.9247 9.4496 25.5 8.59559C24.7285 8.93395 23.8975 9.16313 23.0262 9.26583C23.916 8.73937 24.5989 7.90481 24.9208 6.91027Z" fill="#263844"/>
</g>
</svg>
